<?xml version="1.0" encoding="UTF-8"?> <svg xmlns="http://www.w3.org/2000/svg" width="121.8" height="75.6" viewBox="0 0 121.8 75.6"> <path id="Контур_51" data-name="Контур 51" d="M35.28,1.05A28.456,28.456,0,0,1,19.53-3.413,30.134,30.134,0,0,1,8.61-16.433Q4.62-24.99,4.62-36.75T8.61-57.068a30.134,30.134,0,0,1,10.92-13.02A28.456,28.456,0,0,1,35.28-74.55a28.714,28.714,0,0,1,15.8,4.463,30,30,0,0,1,10.972,13.02q3.99,8.557,3.99,20.317t-3.99,20.318A30,30,0,0,1,51.083-3.413,28.714,28.714,0,0,1,35.28,1.05Zm0-11.865a14.416,14.416,0,0,0,12.443-6.51q4.567-6.51,4.567-19.425T47.723-56.175a14.416,14.416,0,0,0-12.443-6.51,14.322,14.322,0,0,0-12.338,6.51q-4.568,6.51-4.567,19.425t4.567,19.425A14.322,14.322,0,0,0,35.28-10.815Zm70.245-32.34q10.185,1.26,15.54,6.93A19.838,19.838,0,0,1,126.42-22.05,21.678,21.678,0,0,1,123.165-10.4a22.385,22.385,0,0,1-9.818,8.348q-6.562,3.1-16.013,3.1A51.044,51.044,0,0,1,82.162-1.208,38.8,38.8,0,0,1,69.72-7.455L75.6-18.06a29.732,29.732,0,0,0,9.713,5.3,36.5,36.5,0,0,0,11.813,1.943q7.245,0,11.393-2.993a9.511,9.511,0,0,0,4.147-8.138,9.4,9.4,0,0,0-3.937-8.033q-3.937-2.887-12.022-2.887h-6.72V-42.21L106.68-62.055H73.29V-73.5h50.085v9.135Z" transform="translate(-4.62 74.55)" fill="#363636"></path> </svg> 