<?xml version="1.0" encoding="UTF-8"?> <svg xmlns="http://www.w3.org/2000/svg" id="Сгруппировать_20" data-name="Сгруппировать 20" width="61.133" height="61.133" viewBox="0 0 61.133 61.133"> <g id="Сгруппировать_19" data-name="Сгруппировать 19"> <path id="Контур_8" data-name="Контур 8" d="M237.213,203.94a1.274,1.274,0,1,0-2.547,0v10.189a1.273,1.273,0,0,0,1.274,1.274h5.094a1.274,1.274,0,0,0,0-2.547h-3.821Z" transform="translate(-206.647 -178.468)" fill="#e4d3a1"></path> <path id="Контур_10" data-name="Контур 10" d="M73.9,367.064a27.952,27.952,0,0,1-36.186,1.277l3.03-4.945a1.272,1.272,0,0,0-.752-1.894l-10.548-2.856a1.273,1.273,0,0,0-1.463,1.818,30.5,30.5,0,0,0,47.634,8.485,1.274,1.274,0,1,0-1.714-1.885Zm-38.134-.418a28.128,28.128,0,0,1-3.965-4.723l5.882,1.592Z" transform="translate(-24.509 -315.785)" fill="#e4d3a1"></path> <path id="Контур_11" data-name="Контур 11" d="M2.547,30.567A28.065,28.065,0,0,1,20.206,4.532l2.767,5.1a1.274,1.274,0,0,0,2.016.3l7.747-7.683A1.274,1.274,0,0,0,31.9.066L31.453.038C31.16.019,30.865,0,30.567,0A30.532,30.532,0,0,0,.706,37.063a1.274,1.274,0,0,0,2.49-.54A28.192,28.192,0,0,1,2.547,30.567ZM28.754,2.606,24.4,6.922,22.645,3.688A27.756,27.756,0,0,1,28.754,2.606Z" fill="#e4d3a1"></path> <path id="Контур_12" data-name="Контур 12" d="M321.66,11.694a1.273,1.273,0,0,0-.776,2.425,28,28,0,0,1,19.2,30.732l-5.795-.152a1.275,1.275,0,0,0-1.265,1.6l2.791,10.558a1.274,1.274,0,0,0,1.035.933,1.323,1.323,0,0,0,.2.015,1.275,1.275,0,0,0,1.073-.588A30.521,30.521,0,0,0,321.66,11.694Zm15.816,41.487-1.557-5.89,3.669.1A27.974,27.974,0,0,1,337.476,53.181Z" transform="translate(-281.791 -10.241)" fill="#e4d3a1"></path> </g> </svg> 