<?xml version="1.0" encoding="UTF-8"?> <svg xmlns="http://www.w3.org/2000/svg" id="design" width="58.403" height="58.403" viewBox="0 0 58.403 58.403"> <path id="Контур_44" data-name="Контур 44" d="M22.034,19.6a1.235,1.235,0,0,1-.438-.08L5.779,13.437a1.219,1.219,0,0,1,0-2.273L21.6,5.08a1.228,1.228,0,0,1,.874,0l15.818,6.084a1.218,1.218,0,0,1,0,2.273L22.472,19.521A1.235,1.235,0,0,1,22.034,19.6ZM9.607,12.3,22.034,17.08,34.462,12.3,22.034,7.521Z" transform="translate(7.167 7.167)" fill="#e4d3a1"></path> <path id="Контур_45" data-name="Контур 45" d="M22.034,35.485a1.235,1.235,0,0,1-.438-.08L5.779,29.321A1.216,1.216,0,0,1,5,28.185V8.717a1.217,1.217,0,0,1,2.433,0V27.35l14.6,5.616,14.6-5.616V8.717a1.217,1.217,0,0,1,2.433,0V28.185a1.216,1.216,0,0,1-.779,1.136L22.472,35.4A1.235,1.235,0,0,1,22.034,35.485Z" transform="translate(7.167 10.751)" fill="#e4d3a1"></path> <path id="Контур_46" data-name="Контур 46" d="M12.717,31.9A1.217,1.217,0,0,1,11.5,30.685V11.217a1.217,1.217,0,0,1,2.433,0V30.685A1.217,1.217,0,0,1,12.717,31.9Z" transform="translate(16.485 14.335)" fill="#e4d3a1"></path> <path id="Контур_47" data-name="Контур 47" d="M1.217,19.468A1.217,1.217,0,0,1,0,18.251V6.084A6.091,6.091,0,0,1,6.084,0H18.251a1.217,1.217,0,0,1,0,2.433H6.084a3.655,3.655,0,0,0-3.65,3.65V18.251A1.217,1.217,0,0,1,1.217,19.468Z" fill="#e4d3a1"></path> <path id="Контур_48" data-name="Контур 48" d="M29.384,35.468H17.217a1.217,1.217,0,0,1,0-2.433H29.384a3.655,3.655,0,0,0,3.65-3.65V17.217a1.217,1.217,0,0,1,2.433,0V29.384A6.091,6.091,0,0,1,29.384,35.468Z" transform="translate(22.936 22.936)" fill="#e4d3a1"></path> <path id="Контур_49" data-name="Контур 49" d="M34.251,19.468a1.217,1.217,0,0,1-1.217-1.217V6.084a3.655,3.655,0,0,0-3.65-3.65H17.217a1.217,1.217,0,0,1,0-2.433H29.384a6.091,6.091,0,0,1,6.084,6.084V18.251A1.217,1.217,0,0,1,34.251,19.468Z" transform="translate(22.936)" fill="#e4d3a1"></path> <path id="Контур_50" data-name="Контур 50" d="M18.251,35.468H6.084A6.091,6.091,0,0,1,0,29.384V17.217a1.217,1.217,0,0,1,2.433,0V29.384a3.655,3.655,0,0,0,3.65,3.65H18.251a1.217,1.217,0,0,1,0,2.433Z" transform="translate(0 22.936)" fill="#e4d3a1"></path> </svg> 