<?xml version="1.0" encoding="UTF-8"?> <svg xmlns="http://www.w3.org/2000/svg" width="100.1" height="79.2" viewBox="0 0 100.1 79.2"> <path id="Контур_5" data-name="Контур 5" d="M36.96,1.1a29.811,29.811,0,0,1-16.5-4.675A31.569,31.569,0,0,1,9.02-17.215Q4.84-26.18,4.84-38.5T9.02-59.785a31.569,31.569,0,0,1,11.44-13.64A29.811,29.811,0,0,1,36.96-78.1a30.081,30.081,0,0,1,16.555,4.675A31.429,31.429,0,0,1,65.01-59.785Q69.19-50.82,69.19-38.5T65.01-17.215A31.429,31.429,0,0,1,53.515-3.575,30.081,30.081,0,0,1,36.96,1.1Zm0-12.43A15.1,15.1,0,0,0,50-18.15Q54.78-24.97,54.78-38.5T50-58.85A15.1,15.1,0,0,0,36.96-65.67a15,15,0,0,0-12.925,6.82Q19.25-52.03,19.25-38.5t4.785,20.35A15,15,0,0,0,36.96-11.33ZM104.94-77V0H90.64V-65.01H74.36V-77Z" transform="translate(-4.84 78.1)" fill="#363636"></path> </svg> 