<?xml version="1.0" encoding="UTF-8"?> <svg xmlns="http://www.w3.org/2000/svg" xmlns:xlink="http://www.w3.org/1999/xlink" width="92.098" height="34" viewBox="0 0 92.098 34"> <defs> <radialGradient id="radial-gradient" cx="0.346" cy="0.334" r="0.718" gradientUnits="objectBoundingBox"> <stop offset="0" stop-color="#fefcfb"></stop> <stop offset="1" stop-color="#d99926"></stop> </radialGradient> </defs> <g id="Сгруппировать_118" data-name="Сгруппировать 118" transform="translate(10563 14820)"> <path id="Контур_43" data-name="Контур 43" d="M5.724.288A13.219,13.219,0,0,1,2.673-.063,8.179,8.179,0,0,1,.234-1.008L1.6-4.1a8.723,8.723,0,0,0,2.016.837,7.88,7.88,0,0,0,2.142.315,3.32,3.32,0,0,0,1.26-.171A.549.549,0,0,0,7.4-3.636q0-.4-.495-.594a10.645,10.645,0,0,0-1.629-.432,18.474,18.474,0,0,1-2.43-.657A4.141,4.141,0,0,1,1.152-6.471,3.124,3.124,0,0,1,.432-8.64,3.736,3.736,0,0,1,1.1-10.8a4.4,4.4,0,0,1,1.989-1.53A8.261,8.261,0,0,1,6.3-12.888a11.665,11.665,0,0,1,2.547.279,7.979,7.979,0,0,1,2.2.819L9.774-8.712a7.812,7.812,0,0,0-3.51-.936q-1.638,0-1.638.792,0,.378.486.567a10.292,10.292,0,0,0,1.6.405,16.473,16.473,0,0,1,2.43.621A4.227,4.227,0,0,1,10.863-6.12a3.066,3.066,0,0,1,.729,2.16,3.7,3.7,0,0,1-.666,2.151A4.483,4.483,0,0,1,8.937-.279,8.145,8.145,0,0,1,5.724.288ZM25.758-10.026a3.8,3.8,0,0,1,2.853,1.1,4.571,4.571,0,0,1,1.071,3.312V0H25.614V-4.914q0-1.692-1.1-1.692a1.135,1.135,0,0,0-.927.432,2.161,2.161,0,0,0-.351,1.368V0H19.17V-4.914q0-1.692-1.1-1.692a1.135,1.135,0,0,0-.927.432,2.161,2.161,0,0,0-.351,1.368V0H12.726V-9.846H16.6v.918a3.78,3.78,0,0,1,2.79-1.1,4.17,4.17,0,0,1,1.782.369,3.121,3.121,0,0,1,1.3,1.125A4,4,0,0,1,23.9-9.639,4.4,4.4,0,0,1,25.758-10.026ZM42.1-4.932q0,.09-.054.954h-6.84a1.657,1.657,0,0,0,.72.855,2.448,2.448,0,0,0,1.26.3,3.181,3.181,0,0,0,1.089-.162,3.82,3.82,0,0,0,.963-.558L41.364-1.4A5.525,5.525,0,0,1,37.062.18,7.076,7.076,0,0,1,33.93-.477,4.974,4.974,0,0,1,31.842-2.3,4.823,4.823,0,0,1,31.1-4.932a4.855,4.855,0,0,1,.729-2.637,4.983,4.983,0,0,1,2-1.809,6.182,6.182,0,0,1,2.853-.648,6.2,6.2,0,0,1,2.727.594,4.681,4.681,0,0,1,1.962,1.746A5.043,5.043,0,0,1,42.1-4.932ZM36.72-7.254a1.585,1.585,0,0,0-1.044.342,1.624,1.624,0,0,0-.54.972H38.3a1.654,1.654,0,0,0-.54-.963A1.558,1.558,0,0,0,36.72-7.254ZM50.634-.342a5.073,5.073,0,0,1-2.5.522,4.62,4.62,0,0,1-3.186-1,3.817,3.817,0,0,1-1.116-3v-2.52H42.48v-2.97h1.35V-12.06H47.9v2.754h2.016v2.97H47.9v2.484a.992.992,0,0,0,.234.7.8.8,0,0,0,.612.252,1.59,1.59,0,0,0,.918-.27Zm5.436-9.684a5.963,5.963,0,0,1,3.96,1.161A4.429,4.429,0,0,1,61.4-5.292V0h-3.78V-1.3A2.78,2.78,0,0,1,54.828.18a4.453,4.453,0,0,1-1.989-.405,2.931,2.931,0,0,1-1.242-1.1,2.929,2.929,0,0,1-.423-1.557A2.5,2.5,0,0,1,52.29-5.094a6.09,6.09,0,0,1,3.384-.756h1.638Q57.114-7,55.458-7a4.644,4.644,0,0,0-1.35.207,3.794,3.794,0,0,0-1.17.567l-1.3-2.682a7.157,7.157,0,0,1,2.043-.819A9.873,9.873,0,0,1,56.07-10.026Zm-.018,7.758a1.339,1.339,0,0,0,.774-.234,1.353,1.353,0,0,0,.5-.7v-.684H56.322q-1.242,0-1.242.828a.717.717,0,0,0,.261.567A1.053,1.053,0,0,0,56.052-2.268Zm7.11-11.088H67.23V0H63.162Zm5.868,0H73.1V0H69.03Z" transform="translate(-10544 -14789)" fill="#fff"></path> <circle id="Эллипс_115" data-name="Эллипс 115" cx="11" cy="11" r="11" transform="translate(-10563 -14808)" fill="url(#radial-gradient)"></circle> <circle id="Эллипс_116" data-name="Эллипс 116" cx="4" cy="4" r="4" transform="translate(-10541 -14820)" fill="url(#radial-gradient)"></circle> <circle id="Эллипс_117" data-name="Эллипс 117" cx="2.5" cy="2.5" r="2.5" transform="translate(-10528 -14809)" fill="url(#radial-gradient)"></circle> </g> </svg> 